<svg width="39" height="35" viewBox="0 0 39 35" fill="none" xmlns="http://www.w3.org/2000/svg">
<path d="M22.75 28.5513C20.8306 27.6368 19.1805 26.2411 17.9603 24.5H3.5V3.5H35V7.462C36.4178 8.45661 37.6104 9.73858 38.5 11.2245V3.5C38.4972 2.57259 38.1276 1.68396 37.4718 1.02819C36.816 0.372408 35.9274 0.00276977 35 0H3.5C2.57259 0.00276977 1.68396 0.372408 1.02819 1.02819C0.372408 1.68396 0.00276977 2.57259 0 3.5V24.5C0.00276977 25.4274 0.372408 26.316 1.02819 26.9718C1.68396 27.6276 2.57259 27.9972 3.5 28H15.75V31.5H12.25V35H26.25V31.5H22.75V28.5513Z" fill="#0093CB"/>
<path d="M28.0002 7C25.9235 7 23.8935 7.61581 22.1668 8.76957C20.44 9.92332 19.0942 11.5632 18.2995 13.4818C17.5048 15.4004 17.2969 17.5116 17.702 19.5484C18.1071 21.5853 19.1072 23.4562 20.5756 24.9246C22.0441 26.3931 23.915 27.3931 25.9518 27.7982C27.9886 28.2034 30.0998 27.9955 32.0184 27.2007C33.937 26.406 35.5769 25.0602 36.7307 23.3335C37.8844 21.6068 38.5002 19.5767 38.5002 17.5C38.5002 14.7152 37.394 12.0445 35.4249 10.0754C33.4557 8.10625 30.785 7 28.0002 7ZM28.0002 24.5C26.6158 24.5 25.2624 24.0895 24.1113 23.3203C22.9601 22.5511 22.0629 21.4579 21.5331 20.1788C21.0033 18.8997 20.8647 17.4922 21.1348 16.1344C21.4048 14.7765 22.0715 13.5292 23.0505 12.5503C24.0295 11.5713 25.2767 10.9046 26.6346 10.6345C27.9925 10.3644 29.3999 10.503 30.679 11.0328C31.9581 11.5627 33.0514 12.4599 33.8205 13.611C34.5897 14.7622 35.0002 16.1155 35.0002 17.5C34.9979 19.3558 34.2597 21.1349 32.9474 22.4472C31.6352 23.7594 29.8561 24.4977 28.0002 24.5Z" fill="#0093CB"/>
</svg>
