<svg width="41" height="41" viewBox="0 0 41 41" fill="none" xmlns="http://www.w3.org/2000/svg">
<path d="M29.9556 17.0351C31.3263 17.0351 32.641 16.4906 33.6102 15.5213M29.9556 17.0351C28.5848 17.0351 27.2702 16.4906 26.3009 15.5213M29.9556 17.0351V20.9111M33.6102 15.5213C34.5795 14.552 35.124 13.2374 35.124 11.8666M33.6102 15.5213L36.3508 18.2619M35.124 11.8666C35.124 10.4959 34.5795 9.18126 33.6102 8.21198M35.124 11.8666H39M33.6102 8.21198C32.641 7.2427 31.3263 6.69816 29.9556 6.69816M33.6102 8.21198L36.3508 5.4714M29.9556 6.69816C28.5848 6.69816 27.2702 7.2427 26.3009 8.21198M29.9556 6.69816V2.8222M26.3009 8.21198C25.3316 9.18126 24.7871 10.4959 24.7871 11.8666M26.3009 8.21198L23.5603 5.4714M24.7871 11.8666C24.7871 13.2374 25.3316 14.552 26.3009 15.5213M24.7871 11.8666H20.9111M26.3009 15.5213L23.5603 18.2619M29.0939 2.8222H30.8172M35.7424 4.86296L36.9592 6.07985M39 11.005V12.7283M36.9592 17.6535L35.7424 18.8703M30.8172 20.9111H29.0939M24.1688 18.8703L22.9519 17.6535M20.9111 12.7283V11.005M22.9519 6.07985L24.1688 4.86296M13.1 25.4333L15.8512 23.3695C16.132 23.1592 16.4527 23.0083 16.7938 22.9261C17.1348 22.8439 17.4891 22.832 17.8349 22.8913C18.1807 22.9505 18.5108 23.0796 18.805 23.2707C19.0992 23.4618 19.3514 23.7108 19.5462 24.0027C19.8283 24.4265 19.9789 24.9242 19.9789 25.4333C19.9789 25.9424 19.8283 26.4402 19.5462 26.864L16.8411 30.9208C16.0099 32.1669 14.82 33.1314 13.4289 33.6868L9.4 35.3M14.3333 16.8L8.42156 19.3341C6.6749 20.0822 5.28296 21.4736 4.53409 23.2199L2.59858 27.7355C2.20342 28.6573 1.99978 29.6499 2 30.6528V39" stroke="#0093CB" stroke-width="3" stroke-linecap="round" stroke-linejoin="round"/>
<path d="M38.9999 24.2V35.3C38.9999 36.2813 38.6101 37.2224 37.9162 37.9163C37.2223 38.6102 36.2812 39 35.2999 39H18.0333C17.052 39 16.1108 38.6102 15.417 37.9163C14.7231 37.2224 14.3333 36.2813 14.3333 35.3V33.2527M14.3333 24.5075V5.7C14.3333 4.7187 14.7231 3.77759 15.417 3.0837C16.1108 2.38982 17.052 2 18.0333 2H20.911" stroke="#0093CB" stroke-width="3" stroke-linecap="round" stroke-linejoin="round"/>
</svg>
