<svg width="45" height="34" viewBox="0 0 45 34" fill="none" xmlns="http://www.w3.org/2000/svg">
<path d="M39.8787 0.55778C39.3976 0.248347 38.8474 0.0611471 38.2765 0.0126344C37.7056 -0.0358783 37.1314 0.0557823 36.6045 0.279559L19.3377 7.04034C18.9293 7.20712 18.4919 7.29221 18.0504 7.29074H6.99627C6.06851 7.29074 5.17874 7.65715 4.52271 8.30935C3.86669 8.96156 3.49813 9.84615 3.49813 10.7685V11.0467H0V19.3934H3.49813V19.7551C3.52006 20.6629 3.89826 21.5262 4.55193 22.1604C5.2056 22.7947 6.08287 23.1496 6.99627 23.1494L11.194 31.9968C11.4783 32.5926 11.9258 33.0966 12.4852 33.4509C13.0445 33.8053 13.6931 33.9956 14.3563 34H16.1194C17.0423 33.9927 17.9249 33.623 18.5749 32.9716C19.2249 32.3202 19.5896 31.4398 19.5896 30.5222V23.4832L36.6045 30.244C37.0235 30.4077 37.4695 30.4926 37.9198 30.4944C38.6183 30.4816 39.2984 30.2691 39.8787 29.8823C40.339 29.5733 40.7187 29.1599 40.9863 28.676C41.254 28.1922 41.4019 27.652 41.4179 27.1001V3.42346C41.4153 2.85733 41.2738 2.30037 41.0056 1.80097C40.7373 1.30156 40.3505 0.874814 39.8787 0.55778ZM16.0914 10.7685V19.7551H6.99627V10.7685H16.0914ZM16.0914 30.5222H14.3284L10.8862 23.1494H16.0914V30.5222ZM20.625 20.1724C20.2927 20.0037 19.9462 19.8641 19.5896 19.7551V10.5738C19.9427 10.5008 20.2891 10.3984 20.625 10.2677L37.9198 3.42346V27.0166L20.625 20.1724ZM41.5019 11.7423V18.6978C42.4296 18.6978 43.3194 18.3314 43.9754 17.6792C44.6314 17.027 45 16.1424 45 15.2201C45 14.2977 44.6314 13.4131 43.9754 12.7609C43.3194 12.1087 42.4296 11.7423 41.5019 11.7423Z" fill="#0093CB"/>
</svg>
