<svg width="40" height="40" viewBox="0 0 40 40" fill="none" xmlns="http://www.w3.org/2000/svg">
<path d="M2 14.3158H38M10.5263 8.63158H10.5434M18.1053 8.63158H18.1223M2 20C2 11.5154 2 7.27116 4.63558 4.63558C7.27116 2 11.5135 2 20 2C28.4846 2 32.7288 2 35.3644 4.63558C38 7.27116 38 11.5135 38 20C38 28.4846 38 32.7288 35.3644 35.3644C32.7288 38 28.4865 38 20 38C11.5154 38 7.27116 38 4.63558 35.3644C2 32.7288 2 28.4865 2 20Z" stroke="#0093CB" stroke-width="3" stroke-linecap="round" stroke-linejoin="round"/>
<path d="M12.4209 21.8948L14.7457 23.8975C15.7215 24.7407 16.2104 25.1613 16.2104 25.6842C16.2104 26.2072 15.7215 26.6278 14.7457 27.471L12.4209 29.4737M19.9998 29.4737H27.5788" stroke="#0093CB" stroke-width="3" stroke-linecap="round" stroke-linejoin="round"/>
</svg>
