<svg width="49" height="36" viewBox="0 0 49 36" fill="none" xmlns="http://www.w3.org/2000/svg">
<mask id="path-1-inside-1_3_543" fill="white">
<path d="M24.5153 3.13044C25.2925 3.13069 26.0678 3.20933 26.8299 3.36522C29.2378 3.83615 31.4523 5.03336 33.1873 6.80226C34.9223 8.57117 36.0981 10.8306 36.5631 13.2887L36.9616 15.4017L39.0309 15.7774C41.1209 16.1445 42.9987 17.3024 44.2898 19.0203C45.581 20.7383 46.1906 22.89 45.9972 25.0466C45.8038 27.2031 44.8216 29.206 43.2464 30.6559C41.6712 32.1058 39.6187 32.8962 37.4981 32.8696H11.4866C9.366 32.8962 7.31351 32.1058 5.73828 30.6559C4.16306 29.206 3.18083 27.2031 2.98743 25.0466C2.79404 22.89 3.40368 20.7383 4.69482 19.0203C5.98596 17.3024 7.86373 16.1445 9.95375 15.7774L12.0077 15.4017L12.4062 13.2887C12.9464 10.4186 14.4528 7.83179 16.6643 5.97654C18.8758 4.12129 21.6532 3.11445 24.5153 3.13044ZM24.5153 5.40786e-06C20.9479 -0.00302147 17.4912 1.26469 14.7408 3.58468C11.9904 5.90468 10.1186 9.13166 9.44793 12.7096C6.62503 13.2315 4.09522 14.8123 2.35541 17.1416C0.61559 19.4708 -0.208503 22.3802 0.0449915 25.2982C0.298486 28.2162 1.61125 30.932 3.72543 32.9121C5.83962 34.8923 8.60243 35.9937 11.4712 36H37.5288C40.3976 35.9937 43.1604 34.8923 45.2746 32.9121C47.3888 30.932 48.7015 28.2162 48.955 25.2982C49.2085 22.3802 48.3844 19.4708 46.6446 17.1416C44.9048 14.8123 42.375 13.2315 39.5521 12.7096C38.9747 9.63206 37.5061 6.80234 35.3363 4.58664C33.1665 2.37094 30.3954 0.871281 27.3817 0.281744C26.4366 0.0988657 25.4772 0.00456076 24.5153 5.40786e-06Z"/>
</mask>
<path d="M24.5153 3.13044L24.4594 13.1303L24.4858 13.1304L24.5121 13.1304L24.5153 3.13044ZM26.8299 3.36522L24.8257 13.1623L24.8681 13.171L24.9105 13.1793L26.8299 3.36522ZM36.5631 13.2887L46.3899 11.4353L46.3889 11.4301L36.5631 13.2887ZM36.9616 15.4017L27.1349 17.2551L28.4094 24.0126L35.1755 25.2409L36.9616 15.4017ZM39.0309 15.7774L37.2447 25.6166L37.2729 25.6217L37.3011 25.6267L39.0309 15.7774ZM37.4981 32.8696L37.6239 22.8704L37.561 22.8696H37.4981V32.8696ZM11.4866 32.8696V22.8696H11.4236L11.3607 22.8704L11.4866 32.8696ZM9.95375 15.7774L11.6835 25.6267L11.7182 25.6206L11.7528 25.6142L9.95375 15.7774ZM12.0077 15.4017L13.8068 25.2386L20.5618 24.0031L21.8345 17.2551L12.0077 15.4017ZM12.4062 13.2887L22.233 15.1421L22.2337 15.1383L12.4062 13.2887ZM24.5153 5.40786e-06L24.5627 -9.99988L24.5432 -9.99997L24.5238 -9.99999L24.5153 5.40786e-06ZM9.44793 12.7096L11.2659 22.5429L18.0127 21.2956L19.2767 14.552L9.44793 12.7096ZM11.4712 36L11.4492 46L11.4602 46H11.4712V36ZM37.5288 36V46H37.5398L37.5508 46L37.5288 36ZM39.5521 12.7096L29.7235 14.5534L30.9884 21.2958L37.7341 22.5429L39.5521 12.7096ZM27.3817 0.281744L29.3014 -9.53225L29.2915 -9.53419L29.2815 -9.53612L27.3817 0.281744ZM24.5121 13.1304C24.6166 13.1305 24.7216 13.141 24.8257 13.1623L28.834 -6.4319C27.414 -6.72236 25.9684 -6.86909 24.5186 -6.86956L24.5121 13.1304ZM24.9105 13.1793C25.3135 13.2581 25.7139 13.4638 26.0481 13.8046L40.3264 -0.200054C37.1906 -3.39712 33.1621 -5.58581 28.7492 -6.44885L24.9105 13.1793ZM26.0481 13.8046C26.3846 14.1477 26.636 14.6115 26.7374 15.1473L46.3889 11.4301C45.5603 7.04956 43.4599 2.99467 40.3264 -0.200054L26.0481 13.8046ZM26.7364 15.1421L27.1349 17.2551L46.7884 13.5484L46.3899 11.4353L26.7364 15.1421ZM35.1755 25.2409L37.2447 25.6166L40.8171 5.93821L38.7478 5.56256L35.1755 25.2409ZM37.3011 25.6267C36.8561 25.5485 36.508 25.3106 36.2958 25.0283L52.2839 13.0124C49.4894 9.29416 45.3858 6.74042 40.7607 5.92814L37.3011 25.6267ZM36.2958 25.0283C36.0881 24.7519 36.0114 24.4407 36.0372 24.1534L55.9573 25.9398C56.3698 21.3394 55.0739 16.7247 52.2839 13.0124L36.2958 25.0283ZM36.0372 24.1534C36.0631 23.8648 36.1973 23.553 36.474 23.2983L50.0187 38.0136C53.446 34.859 55.5446 30.5414 55.9573 25.9398L36.0372 24.1534ZM36.474 23.2983C36.7569 23.0379 37.1653 22.8646 37.6239 22.8704L37.3723 42.8688C42.0721 42.9279 46.5855 41.1737 50.0187 38.0136L36.474 23.2983ZM37.4981 22.8696H11.4866V42.8696H37.4981V22.8696ZM11.3607 22.8704C11.8194 22.8646 12.2278 23.0379 12.5106 23.2983L-1.03406 38.0136C2.39922 41.1737 6.91259 42.9279 11.6124 42.8688L11.3607 22.8704ZM12.5106 23.2983C12.7874 23.553 12.9216 23.8648 12.9475 24.1534L-6.9726 25.9398C-6.55993 30.5414 -4.4613 34.859 -1.03406 38.0136L12.5106 23.2983ZM12.9475 24.1534C12.9732 24.4407 12.8966 24.7519 12.6888 25.0283L-3.2992 13.0124C-6.0892 16.7247 -7.38515 21.3394 -6.9726 25.9398L12.9475 24.1534ZM12.6888 25.0283C12.4767 25.3106 12.1286 25.5485 11.6835 25.6267L8.22398 5.92814C3.59886 6.74042 -0.504745 9.29416 -3.2992 13.0124L12.6888 25.0283ZM11.7528 25.6142L13.8068 25.2386L10.2086 5.56491L8.15467 5.94056L11.7528 25.6142ZM21.8345 17.2551L22.233 15.1421L2.57948 11.4353L2.18095 13.5484L21.8345 17.2551ZM22.2337 15.1383C22.3517 14.5111 22.6735 13.9882 23.0913 13.6378L10.2373 -1.68467C6.23203 1.67536 3.5411 6.326 2.57877 11.4391L22.2337 15.1383ZM23.0913 13.6378C23.5043 13.2912 23.9894 13.1277 24.4594 13.1303L24.5712 -6.8694C19.3171 -6.89876 14.2474 -5.04866 10.2373 -1.68467L23.0913 13.6378ZM24.5238 -9.99999C18.5713 -10.005 12.8325 -7.88816 8.29314 -4.05912L21.1885 11.2285C22.1499 10.4175 23.3245 9.999 24.5068 10L24.5238 -9.99999ZM8.29314 -4.05912C3.7584 -0.233997 0.709079 5.05243 -0.380884 10.8672L19.2767 14.552C19.5281 13.2109 20.2224 12.0434 21.1885 11.2285L8.29314 -4.05912ZM7.62993 2.87621C2.29677 3.86222 -2.43133 6.83963 -5.65635 11.1573L10.3672 23.1259C10.6218 22.785 10.9533 22.6007 11.2659 22.5429L7.62993 2.87621ZM-5.65635 11.1573C-8.87708 15.4692 -10.3817 20.8205 -9.91749 26.1637L10.0075 24.4327C9.96465 23.9398 10.1083 23.4725 10.3672 23.1259L-5.65635 11.1573ZM-9.91749 26.1637C-9.45322 31.5079 -7.04643 36.5244 -3.11048 40.2108L10.5613 25.6135C10.2689 25.3396 10.0502 24.9245 10.0075 24.4327L-9.91749 26.1637ZM-3.11048 40.2108C0.831268 43.9026 6.02185 45.988 11.4492 46L11.4932 26C11.183 25.9993 10.848 25.8819 10.5613 25.6135L-3.11048 40.2108ZM11.4712 46H37.5288V26H11.4712V46ZM37.5508 46C42.9781 45.988 48.1687 43.9026 52.1105 40.2108L38.4387 25.6135C38.152 25.8819 37.817 25.9993 37.5068 26L37.5508 46ZM52.1105 40.2108C56.0464 36.5244 58.4532 31.5079 58.9175 26.1637L38.9925 24.4327C38.9498 24.9245 38.7311 25.3396 38.4387 25.6135L52.1105 40.2108ZM58.9175 26.1637C59.3817 20.8205 57.8771 15.4692 54.6563 11.1573L38.6328 23.1259C38.8917 23.4725 39.0354 23.9398 38.9925 24.4327L58.9175 26.1637ZM54.6563 11.1573C51.4313 6.83963 46.7032 3.86222 41.3701 2.87621L37.7341 22.5429C38.0467 22.6007 38.3782 22.785 38.6328 23.1259L54.6563 11.1573ZM49.3806 10.8658C48.4421 5.86294 46.0499 1.23433 42.481 -2.41005L28.1917 11.5833C28.9624 12.3703 29.5074 13.4012 29.7235 14.5534L49.3806 10.8658ZM42.481 -2.41005C38.9098 -6.05678 34.3227 -8.55002 29.3014 -9.53225L25.4619 10.0957C26.4682 10.2926 27.4233 10.7987 28.1917 11.5833L42.481 -2.41005ZM29.2815 -9.53612C27.7264 -9.83705 26.1468 -9.99238 24.5627 -9.99988L24.468 9.99989C24.8075 10.0015 25.1468 10.0348 25.4818 10.0996L29.2815 -9.53612Z" fill="#0093CB" mask="url(#path-1-inside-1_3_543)"/>
</svg>
